<svg width="16" height="16" viewBox="0 0 16 16" fill="none" xmlns="http://www.w3.org/2000/svg">
<path fill-rule="evenodd" clip-rule="evenodd" d="M10.6829 3.00211C11.9029 2.91811 12.8456 3.63011 13.4729 4.45145C14.1049 5.28011 14.5402 6.36211 14.7796 7.42611C15.0176 8.49011 15.0816 9.63345 14.8836 10.6081C14.6936 11.5441 14.1862 12.6148 13.0389 12.9581C11.9589 13.2808 11.0122 12.8114 10.3376 12.2434C9.66024 11.6734 9.0869 10.8748 8.63624 10.1261C8.42527 9.77443 8.22736 9.41507 8.0429 9.04878C7.85865 9.41483 7.66096 9.77397 7.45024 10.1254C6.99957 10.8748 6.42624 11.6734 5.7489 12.2434C5.07357 12.8114 4.12757 13.2808 3.04757 12.9581C1.90024 12.6148 1.3929 11.5448 1.2029 10.6081C1.00557 9.63345 1.06957 8.49011 1.30757 7.42611C1.54624 6.36211 1.98157 5.27945 2.61424 4.45145C3.2409 3.63011 4.18357 2.91811 5.40357 3.00211C6.54757 3.08211 7.3789 3.85745 7.8969 4.51478L8.04357 4.70745L8.18957 4.51411C8.70757 3.85745 9.5389 3.08145 10.6829 3.00211ZM5.2649 4.99745C4.9849 4.97811 4.61824 5.12145 4.20357 5.66545C3.79424 6.20211 3.45424 6.99411 3.2589 7.86411C3.06357 8.73411 3.03557 9.58345 3.1629 10.2108C3.2729 10.7508 3.44957 10.9448 3.55757 11.0128L3.6029 11.0354L3.6209 11.0421C3.77557 11.0888 4.03024 11.0754 4.4609 10.7128C4.8909 10.3514 5.32957 9.77078 5.7369 9.09478C5.91824 8.79278 6.0869 8.48345 6.23824 8.18611L6.41157 7.83611L6.5669 7.50478L6.70424 7.19945L6.8209 6.92811L6.91624 6.69745C6.78709 6.43845 6.63937 6.18913 6.47424 5.95145C6.0449 5.34078 5.61424 5.02211 5.2649 4.99811V4.99745ZM10.8216 4.99745C10.4722 5.02211 10.0416 5.34078 9.61224 5.95145C9.4471 6.18913 9.29938 6.43845 9.17024 6.69745L9.32157 7.05945L9.44824 7.34878L9.51957 7.50478L9.67557 7.83611L9.8489 8.18611C10.0002 8.48345 10.1682 8.79278 10.3496 9.09478C10.7569 9.77078 11.1962 10.3514 11.6249 10.7128C12.0256 11.0501 12.2736 11.0848 12.4316 11.0508L12.4662 11.0421C12.5529 11.0154 12.7882 10.8761 12.9236 10.2101C13.0502 9.58345 13.0229 8.73411 12.8276 7.86345C12.6329 6.99411 12.2929 6.20211 11.8829 5.66545C11.4676 5.12145 11.1016 4.97878 10.8216 4.99745Z" fill="#1164FF"/>
</svg>
