<svg width="16" height="16" viewBox="0 0 16 16" fill="none" xmlns="http://www.w3.org/2000/svg">
<path d="M14.949 6.5357C15.1304 5.99793 15.1931 5.42826 15.133 4.86472C15.0729 4.30119 14.8914 3.75677 14.6005 3.26782C13.7158 1.75145 11.9375 0.971451 10.2008 1.33797C9.71996 0.811321 9.10683 0.418517 8.42299 0.199012C7.73916 -0.0204926 7.00871 -0.0589705 6.30499 0.0874429C5.60128 0.233856 4.94908 0.560006 4.41389 1.03314C3.87871 1.50627 3.47938 2.10972 3.25601 2.7829C2.69213 2.89676 2.15941 3.12782 1.69348 3.46062C1.22754 3.79342 0.839107 4.2203 0.554138 4.71274C-0.340237 6.22671 -0.137175 8.13637 1.0562 9.43521C0.874185 9.97271 0.810834 10.5423 0.870385 11.1058C0.929936 11.6694 1.11102 12.2139 1.40151 12.703C2.28739 14.2199 4.06676 14.9999 5.80439 14.6329C6.18643 15.0564 6.65585 15.3949 7.18131 15.6257C7.70677 15.8564 8.27617 15.9741 8.85151 15.971C10.6316 15.9725 12.2086 14.8411 12.7524 13.1721C13.3162 13.0581 13.8488 12.8269 14.3147 12.4942C14.7806 12.1614 15.1691 11.7346 15.4542 11.2423C16.3378 9.73102 16.1339 7.8317 14.949 6.5357ZM8.85151 14.9257C8.14099 14.9268 7.45275 14.6816 6.90745 14.2331L7.00339 14.1795L10.2328 12.3441C10.3131 12.2977 10.3798 12.2315 10.4264 12.152C10.4729 12.0725 10.4977 11.9825 10.4982 11.8908V7.4077L11.8635 8.1853C11.8771 8.19213 11.8866 8.20499 11.8891 8.21994V11.9348C11.8856 13.5852 10.5276 14.9222 8.85151 14.9257ZM2.32239 12.1804C1.96608 11.5746 1.83814 10.8645 1.96108 10.175L2.05695 10.2316L5.28958 12.0671C5.36956 12.1133 5.46062 12.1377 5.55336 12.1377C5.64609 12.1377 5.73715 12.1133 5.81714 12.0671L9.76595 9.82554V11.3776C9.76558 11.3856 9.76338 11.3935 9.75951 11.4006C9.75563 11.4077 9.75019 11.4138 9.74358 11.4185L6.47264 13.276C5.01908 14.1005 3.16201 13.6102 2.32239 12.1804ZM1.47183 5.25428C1.83063 4.64457 2.39697 4.17953 3.07058 3.94148V7.71933C3.06937 7.8106 3.09306 7.90053 3.13918 7.97971C3.1853 8.0589 3.25215 8.12446 3.33276 8.16954L7.26239 10.4017L5.89708 11.1793C5.88969 11.1831 5.88146 11.1851 5.87311 11.1851C5.86475 11.1851 5.85652 11.1831 5.84914 11.1793L2.58458 9.32505C1.13389 8.49711 0.636388 6.67004 1.47183 5.23859V5.25428ZM12.6884 7.82013L8.74595 5.56597L10.1081 4.79151C10.1155 4.78765 10.1238 4.78564 10.1321 4.78564C10.1405 4.78564 10.1487 4.78765 10.1561 4.79151L13.4207 6.64899C13.9199 6.93257 14.3268 7.35011 14.594 7.85286C14.8611 8.35561 14.9775 8.92282 14.9296 9.48827C14.8817 10.0537 14.6713 10.5941 14.3232 11.0462C13.975 11.4984 13.5034 11.8437 12.9634 12.0419V8.264C12.9606 8.17289 12.9338 8.08406 12.8856 8.00623C12.8374 7.92841 12.7694 7.86428 12.6884 7.82013ZM14.0473 5.80844L13.9514 5.7517L10.7252 3.90056C10.6447 3.85407 10.5531 3.82956 10.4598 3.82956C10.3665 3.82956 10.2749 3.85407 10.1944 3.90056L6.24876 6.14216V4.5901C6.24795 4.58221 6.2493 4.57425 6.25268 4.56705C6.25605 4.55986 6.26133 4.55368 6.26795 4.54917L9.53251 2.69484C10.0328 2.41104 10.6049 2.27337 11.1818 2.29794C11.7587 2.32251 12.3165 2.5083 12.7901 2.83358C13.2637 3.15886 13.6334 3.61018 13.856 4.13476C14.0787 4.65934 14.145 5.23549 14.0473 5.79582L14.0473 5.80844ZM5.50383 8.55994L4.13851 7.78548C4.13169 7.78142 4.12586 7.77593 4.12143 7.7694C4.117 7.76287 4.11408 7.75546 4.11289 7.7477V4.04228C4.11364 3.47384 4.27874 2.91736 4.58886 2.4379C4.89899 1.95844 5.34133 1.57582 5.86417 1.33477C6.38701 1.09372 6.96875 1.0042 7.54135 1.07668C8.11396 1.14916 8.65378 1.38064 9.0977 1.74407L9.00176 1.7976L5.77239 3.63299C5.69204 3.67943 5.62534 3.74564 5.57881 3.82511C5.53229 3.90459 5.50755 3.99461 5.50701 4.08634L5.50383 8.55994ZM6.24558 6.98579L8.0042 5.98782L9.76595 6.98585V8.98179L8.01058 9.97982L6.24883 8.98179L6.24558 6.98579Z" fill="black"/>
</svg>
